<svg xmlns="http://www.w3.org/2000/svg" width="391.325" height="75.323" viewBox="0 0 391.325 75.323">
  <g id="Group_98" data-name="Group 98" transform="translate(-375 -23)">
    <g id="Group_97" data-name="Group 97">
      <g id="Group_83" data-name="Group 83" transform="translate(136.674 -0.323)">
        <path id="Path_4" data-name="Path 4" d="M429.643,102.917l21.066-25.063L429.643,55.935l234.942.1,21.066,23.771-21.066,23.14Z" transform="translate(-56 -18.634)" fill="#faee09"/>
        <path id="Path_14" data-name="Path 14" d="M-78.12-26h6.08a17.909,17.909,0,0,1,4.9.62,9.807,9.807,0,0,1,3.68,1.88,8.19,8.19,0,0,1,2.3,3.18,11.816,11.816,0,0,1,.8,4.56,19.833,19.833,0,0,1-1.1,6.92A13.623,13.623,0,0,1-64.5-3.92,12.462,12.462,0,0,1-69.08-.98,16.192,16.192,0,0,1-74.76,0h-8.56Zm3.2,20.88a8.75,8.75,0,0,0,3.06-.54A6.408,6.408,0,0,0-69.3-7.42a8.739,8.739,0,0,0,1.74-3.16,15.415,15.415,0,0,0,.64-4.78,7.335,7.335,0,0,0-.4-2.58,4.5,4.5,0,0,0-1.1-1.72,4.014,4.014,0,0,0-1.68-.94,7.613,7.613,0,0,0-2.1-.28h-.56L-75.88-5.12ZM-53.08-26h15.84l-1.04,5.36H-47.8l-.88,4.56h8.08l-1.04,5.36h-8.08l-1.12,5.36H-41L-42.04,0H-58.28Zm21.44,0h6.4L-29.4-5.36h9.44L-21,0H-36.84Zm20.56,0h6.4L-9.88,0h-6.4Zm9.28,0H4.92L5.4-13.84q.08,2.04.12,4.1T5.56-5.6h.16Q6.6-7.68,7.44-9.72t1.72-4.12L14.44-26h7.04L8.12,0H.36Zm26.16,0H40.2l-1.04,5.36H29.64l-.88,4.56h8.08L35.8-10.72H27.72L26.6-5.36h9.84L35.4,0H19.16ZM49.8-14h2.32a5.61,5.61,0,0,0,3.86-1.14,3.876,3.876,0,0,0,1.26-3.02,2.4,2.4,0,0,0-.98-2.12,4.839,4.839,0,0,0-2.78-.68H51.16Zm4.56-12a17.368,17.368,0,0,1,3.64.36,8.449,8.449,0,0,1,2.92,1.18,5.761,5.761,0,0,1,1.94,2.14,6.754,6.754,0,0,1,.7,3.2,10.819,10.819,0,0,1-.46,3.26,8.8,8.8,0,0,1-1.3,2.6,8.721,8.721,0,0,1-2,1.96,11.4,11.4,0,0,1-2.52,1.34L61.16,0H54.44l-3-8.96H48.76L47,0H40.6l5.2-26ZM70.52-9.12,66.4-26h6.64l.84,5.76q.24,1.52.44,2.86t.44,2.9h.16q.8-1.56,1.5-2.94t1.54-2.9L81.08-26h6.88L76.92-9.12,75.08,0H68.72Z" transform="translate(501.326 73.323)"/>
        <rect id="Rectangle_393" data-name="Rectangle 393" width="70" height="22" rx="11" transform="translate(400.325 23.323)" fill="#f93e4d"/>
        <path id="Path_5" data-name="Path 5" d="M-45.3,0H124.189l-6.7,22.024H-52Z" transform="translate(466.202 76.623)"/>
        <path id="Path_15" data-name="Path 15" d="M-19.031-11.05H-12.3l-.442,2.278h-4.046l-.442,2.278H-13.8l-.442,2.278h-3.434L-18.521,0h-2.72Zm12.461,5.1h.986a2.384,2.384,0,0,0,1.64-.485,1.647,1.647,0,0,0,.536-1.283,1.02,1.02,0,0,0-.417-.9,2.056,2.056,0,0,0-1.181-.289h-.986Zm1.938-5.1a7.381,7.381,0,0,1,1.547.153,3.591,3.591,0,0,1,1.241.5,2.448,2.448,0,0,1,.825.91,2.87,2.87,0,0,1,.3,1.36,4.6,4.6,0,0,1-.2,1.385,3.742,3.742,0,0,1-.553,1.105,3.706,3.706,0,0,1-.85.833,4.844,4.844,0,0,1-1.071.569L-1.743,0H-4.6L-5.874-3.808H-7.013L-7.761,0h-2.72l2.21-11.05Zm8.755,0h6.732l-.442,2.278H6.366L5.992-6.834H9.426L8.984-4.556H5.55L5.074-2.278H9.256L8.814,0h-6.9Zm11.1,0h6.732l-.442,2.278H17.468l-.374,1.938h3.434l-.442,2.278H16.652l-.476,2.278h4.182L19.916,0h-6.9Z" transform="translate(435.326 40.323)" fill="#fff"/>
        <path id="Path_13" data-name="Path 13" d="M-66.759-4.556l-.034-1.292q-.034-.8-.051-1.556t-.017-1.606h-.068q-.34.816-.638,1.589t-.654,1.573L-68.8-4.556Zm.068,2.04h-3.043L-70.873,0h-2.992l5.78-11.05h3.264L-63.767,0h-2.856Zm8.534-3.434h.986a2.384,2.384,0,0,0,1.64-.485A1.647,1.647,0,0,0-55-7.718a1.02,1.02,0,0,0-.417-.9,2.056,2.056,0,0,0-1.181-.289h-.986Zm1.938-5.1a7.381,7.381,0,0,1,1.547.153,3.591,3.591,0,0,1,1.241.5,2.448,2.448,0,0,1,.825.91,2.87,2.87,0,0,1,.3,1.36,4.6,4.6,0,0,1-.2,1.385,3.742,3.742,0,0,1-.553,1.105,3.706,3.706,0,0,1-.85.833,4.844,4.844,0,0,1-1.071.569L-53.329,0h-2.856L-57.46-3.808H-58.6L-59.347,0h-2.72l2.21-11.05ZM-46.189.2a4.674,4.674,0,0,1-1.743-.314,3.722,3.722,0,0,1-1.352-.909,4.162,4.162,0,0,1-.875-1.471,5.888,5.888,0,0,1-.314-2,7.681,7.681,0,0,1,.485-2.8,6.911,6.911,0,0,1,1.275-2.134,5.554,5.554,0,0,1,1.819-1.36,5.025,5.025,0,0,1,2.134-.476,4.674,4.674,0,0,1,1.743.314,3.722,3.722,0,0,1,1.351.91,4.162,4.162,0,0,1,.875,1.47,5.888,5.888,0,0,1,.314,2,7.681,7.681,0,0,1-.484,2.8,6.911,6.911,0,0,1-1.275,2.133,5.527,5.527,0,0,1-1.827,1.36A5.044,5.044,0,0,1-46.189.2ZM-44.9-8.908a1.832,1.832,0,0,0-.969.306,3.245,3.245,0,0,0-.9.867,4.793,4.793,0,0,0-.663,1.343,5.571,5.571,0,0,0-.255,1.734A3.362,3.362,0,0,0-47.252-2.8a1.363,1.363,0,0,0,1.2.655,1.832,1.832,0,0,0,.969-.306,3.245,3.245,0,0,0,.9-.867,4.793,4.793,0,0,0,.663-1.343,5.571,5.571,0,0,0,.255-1.734A3.362,3.362,0,0,0-43.7-8.253,1.363,1.363,0,0,0-44.9-8.908Zm8.126-2.142h2.72l-1.19,5.95q-.051.34-.093.646a4.444,4.444,0,0,0-.042.612,2.181,2.181,0,0,0,.306,1.275,1.341,1.341,0,0,0,1.156.425,1.379,1.379,0,0,0,1.173-.612,5.5,5.5,0,0,0,.731-2.04l1.258-6.256H-28.1l-1.258,6.188A7.99,7.99,0,0,1-30.974-1.02,3.85,3.85,0,0,1-33.983.2a4.372,4.372,0,0,1-3.094-.961A3.971,3.971,0,0,1-38.1-3.774a6.329,6.329,0,0,1,.076-.909q.076-.518.161-.96Zm11.866,0h2.618l1.53,5.236.544,2.482h.068q.034-.442.068-.969t.085-1.071q.051-.544.119-1.1t.17-1.046l.714-3.536h2.584L-18.615,0h-2.618l-1.53-5.236-.51-2.482h-.068q-.085.952-.178,2.049a18.358,18.358,0,0,1-.3,2.1L-24.531,0h-2.584Zm11.764,0h2.584a7.611,7.611,0,0,1,2.083.263,4.168,4.168,0,0,1,1.564.8,3.481,3.481,0,0,1,.977,1.351A5.022,5.022,0,0,1-5.593-6.7a8.429,8.429,0,0,1-.468,2.941A5.79,5.79,0,0,1-7.353-1.666,5.3,5.3,0,0,1-9.3-.417,6.882,6.882,0,0,1-11.713,0h-3.638Zm1.36,8.874a3.719,3.719,0,0,0,1.3-.229,2.723,2.723,0,0,0,1.088-.748A3.714,3.714,0,0,0-8.653-4.5a6.551,6.551,0,0,0,.272-2.031,3.117,3.117,0,0,0-.17-1.1,1.913,1.913,0,0,0-.468-.731,1.706,1.706,0,0,0-.714-.4,3.236,3.236,0,0,0-.893-.119h-.238l-1.326,6.7ZM2.261-11.05h2.72L4.148-6.868h.068L7.837-11.05h2.958L6.817-6.392,9.265,0H6.443L4.811-4.692,3.383-3.06,2.771,0H.051ZM16.847-4.556l-.034-1.292q-.034-.8-.051-1.556T16.745-9.01h-.068q-.34.816-.637,1.589t-.655,1.573l-.578,1.292Zm.068,2.04H13.872L12.733,0H9.741l5.78-11.05h3.264L19.839,0H16.983Zm6.834-8.534h2.822l.714,4.76.255,1.87h.068l.969-1.87,2.584-4.76h2.822L31.773,0h-2.55L30-3.672q.085-.425.212-.935t.281-1.02q.153-.51.306-1t.289-.918h-.051L29.665-4.964,27.319-.952H26.3l-.714-4.012-.34-2.584h-.051q-.034.425-.076.927T25.024-5.61q-.051.51-.111,1.011t-.144.927L24.021,0H21.539Zm13.5,0h3.638a6.925,6.925,0,0,1,1.53.161,3.609,3.609,0,0,1,1.241.519,2.552,2.552,0,0,1,.833.935,2.984,2.984,0,0,1,.306,1.411,4.506,4.506,0,0,1-.425,2.049,3.8,3.8,0,0,1-1.139,1.369,4.689,4.689,0,0,1-1.658.765,8.069,8.069,0,0,1-1.98.238H38.471L37.757,0h-2.72Zm2.669,5.3a2.466,2.466,0,0,0,1.624-.476,1.714,1.714,0,0,0,.569-1.394,1.146,1.146,0,0,0-.417-.977,1.929,1.929,0,0,0-1.181-.314h-.986l-.612,3.162Zm9.775,1.19-.034-1.292q-.034-.8-.051-1.556T49.589-9.01h-.068q-.34.816-.638,1.589t-.654,1.573l-.578,1.292Zm.068,2.04H46.716L45.577,0H42.585l5.78-11.05h3.264L52.683,0H49.827Zm6.834-8.534h2.72L57.545-2.278h4.012L61.115,0H54.383Zm12.58,6.494-.034-1.292q-.034-.8-.051-1.556T69.071-9.01H69q-.34.816-.638,1.589t-.654,1.573l-.578,1.292Zm.068,2.04H66.2L65.059,0H62.067l5.78-11.05h3.264L72.165,0H69.309Z" transform="translate(500.326 93.323)" fill="#fff"/>
      </g>
      <g id="bMm1jB.tif" transform="translate(374.967 27.97)">
        <path id="Path_6" data-name="Path 6" d="M145.577,63.7c-.186,1.2-.264,2.341-.544,3.426-1.631,6.29-9.756,9.034-14.719,4.983a10.576,10.576,0,0,1-3.39-5.967c-.184-.752-.307-1.52-.466-2.325H87.167A9.639,9.639,0,0,1,83.3,72.087a9.324,9.324,0,0,1-6.027,1.918A9.656,9.656,0,0,1,68.2,63.7c-.972,0-1.942.03-2.908-.012a9.323,9.323,0,0,1-2.1-.248,5.284,5.284,0,0,1-3.948-5.1c-.085-2.238-.052-4.483-.024-6.725a1.875,1.875,0,1,1,3.745.089c.022,2-.012,4,.044,5.991.046,1.65.623,2.182,2.254,2.2,1.043.016,2.089-.026,3.132.01a1.938,1.938,0,0,0,1.694-.847,9.328,9.328,0,0,1,8.28-3.829,8.766,8.766,0,0,1,6.546,3.491A2.91,2.91,0,0,0,87.5,59.929c11.44-.04,22.882-.03,34.319-.034h.922c.016-.294.038-.528.038-.762V15.773c0-.244,0-.488-.022-.732a1.809,1.809,0,0,0-1.948-1.908c-.464-.03-.932-.034-1.4-.034H93.624a6.826,6.826,0,0,1-1.258-.1,1.815,1.815,0,0,1-1.472-1.742,1.744,1.744,0,0,1,1.349-1.831,4.743,4.743,0,0,1,1.19-.127c6.021,0,12.039.022,18.052.024,2.954,0,5.908-.034,8.861-.04a5.845,5.845,0,0,1,6.233,6.2v6.584h.774c4.043,0,8.086.016,12.131,0a5.809,5.809,0,0,1,5.332,2.89q4.442,7.074,9.006,14.071a9.919,9.919,0,0,1,1.684,5.824c-.075,4.3-.014,8.613-.024,12.918a5.674,5.674,0,0,1-4.3,5.769,9.807,9.807,0,0,1-2.111.161C147.9,63.716,146.723,63.7,145.577,63.7ZM126.93,26.007V60.264a2.145,2.145,0,0,0,.4-.228c.611-.575,1.25-1.131,1.813-1.75a8.635,8.635,0,0,1,8.433-2.8,9.235,9.235,0,0,1,5.886,3.727,1.879,1.879,0,0,0,1.734.859c1.285-.048,2.579,0,3.864-.014,1.77-.016,2.333-.6,2.325-2.38-.018-4.775-.018-9.548-.091-14.321a4.364,4.364,0,0,0-.621-2.123c-2.853-4.628-5.767-9.216-8.659-13.821a2.926,2.926,0,0,0-2.66-1.466H128.219c-.432,0-.841.042-1.287.065ZM77.7,59.1a5.656,5.656,0,0,0-5.681,5.511,5.654,5.654,0,1,0,11.305.254A5.611,5.611,0,0,0,77.7,59.1Zm63.664,5.614a5.626,5.626,0,0,0-11.252.014,5.626,5.626,0,1,0,11.252-.014Z" transform="translate(-48.91 -9.25)" fill="#faee09"/>
        <path id="Path_7" data-name="Path 7" d="M45.087,49.74H26.156c-1.19,0-1.924-.5-2.109-1.428a1.8,1.8,0,0,1,1.613-2.291,7.623,7.623,0,0,1,1.063-.056H63.85a3.952,3.952,0,0,1,1.363.222,1.708,1.708,0,0,1,1.093,1.74A1.771,1.771,0,0,1,65,49.589a4.546,4.546,0,0,1-1.19.137Q54.453,49.74,45.087,49.74Z" transform="translate(-20.702 -38.657)" fill="#faee09"/>
        <path id="Path_8" data-name="Path 8" d="M104.674,157.268H86.225a6.093,6.093,0,0,1-1.125-.1,1.744,1.744,0,0,1-1.623-1.918,1.849,1.849,0,0,1,1.9-1.694c.954-.038,1.91-.024,2.865-.024h34.716a6.21,6.21,0,0,1,1.514.137,1.67,1.67,0,0,1,1.309,1.892,1.62,1.62,0,0,1-1.514,1.587,21.873,21.873,0,0,1-2.525.115Q113.206,157.276,104.674,157.268Z" transform="translate(-68.378 -124.887)" fill="#faee09"/>
        <path id="Path_9" data-name="Path 9" d="M111.678,105.625h-9.125a4.128,4.128,0,0,1-1.3-.2,1.722,1.722,0,0,1-1.164-1.885,1.643,1.643,0,0,1,1.389-1.569,4.229,4.229,0,0,1,.992-.089H121a4.461,4.461,0,0,1,1.18.153,1.75,1.75,0,0,1,.365,3.206,3.864,3.864,0,0,1-1.587.381C117.853,105.642,114.766,105.625,111.678,105.625Z" transform="translate(-81.691 -83.482)" fill="#faee09"/>
        <path id="Path_10" data-name="Path 10" d="M142.423,10.335c1.464,0,2.93-.014,4.394,0a1.693,1.693,0,0,1,1.809,1.714,1.762,1.762,0,0,1-1.716,1.9q-4.6.056-9.193,0a1.8,1.8,0,0,1-1.766-1.815,1.718,1.718,0,0,1,1.744-1.8C139.271,10.294,140.846,10.335,142.423,10.335Z" transform="translate(-110.446 -10.081)" fill="#faee09"/>
        <path id="Path_11" data-name="Path 11" d="M13.079,153.69h3.327c1.305.014,2.037.69,2.033,1.851a1.782,1.782,0,0,1-2,1.835c-2.039.026-4.081,0-6.122,0a9.291,9.291,0,0,1-.992-.016,1.829,1.829,0,0,1-1.773-1.938,1.71,1.71,0,0,1,1.871-1.734C10.639,153.668,11.859,153.692,13.079,153.69Z" transform="translate(-7.52 -125.005)" fill="#faee09"/>
        <path id="Path_12" data-name="Path 12" d="M424.136,122.467h-5.864c-1.537,0-2.192-.653-2.192-2.182V109.5c0-1.248.579-1.984,1.805-2.019,1.75-.063,3.505,0,5.257.032a2.269,2.269,0,0,1,1.9,1.19c2.3,3.61,4.6,7.217,6.878,10.843a1.847,1.847,0,0,1-1.652,2.924C428.221,122.483,426.181,122.467,424.136,122.467ZM420,118.591h6.745a.866.866,0,0,0-.052-.234c-1.361-2.15-2.71-4.309-4.1-6.441a1.671,1.671,0,0,0-1.984-.674.678.678,0,0,0-.619.815c.03.992,0,1.994,0,2.99Z" transform="translate(-335.005 -87.948)" fill="#faee09"/>
      </g>
    </g>
  </g>
</svg>
